<svg width="24" height="24" viewBox="0 0 24 24" fill="none" xmlns="http://www.w3.org/2000/svg">
<rect width="24" height="24" transform="matrix(-1 0 0 1 24 6.10352e-05)" fill="white"/>
<path d="M19.7957 4.20362C18.9342 3.34234 17.5373 3.34217 16.6759 4.20362L14.7576 6.12193L13.5775 4.9418C12.9372 4.30151 11.899 4.30158 11.2587 4.9418C10.6183 5.58214 10.6183 6.62028 11.2587 7.26062L12.523 8.52499L4.8581 16.7631L4.74001 16.9046C4.48439 17.2481 4.36793 17.6785 4.41892 18.1082L4.4417 18.2512C4.58709 18.9549 5.16825 19.4958 5.89252 19.5818C6.32208 19.6326 6.7528 19.5162 7.09612 19.2607L7.23768 19.1426L15.4757 11.4777L16.7394 12.7414C17.3798 13.3817 18.4179 13.3817 19.0582 12.7414C19.6985 12.101 19.6985 11.0629 19.0582 10.4226L17.8774 9.24176L19.7957 7.32346C20.6573 6.46193 20.6573 5.06515 19.7957 4.20362ZM14.4151 10.417L6.21569 18.0447C6.17632 18.0811 6.12189 18.0985 6.0686 18.0923C5.98485 18.0821 5.91873 18.0158 5.9084 17.9321C5.90205 17.8787 5.91949 17.8245 5.95604 17.785L13.5844 9.58634L14.4151 10.417Z" fill="#555555"/>
<mask id="path-3-outside-1_5_113" maskUnits="userSpaceOnUse" x="-1.12473" y="-1.86762" width="26.8701" height="26.8701" fill="black">
<rect fill="white" x="-1.12473" y="-1.86762" width="26.8701" height="26.8701"/>
<path d="M19.7957 4.20355C18.9341 3.34229 17.5373 3.34211 16.6759 4.20355L14.7576 6.12186L14.3564 5.72066C13.716 5.08042 12.6778 5.08039 12.0375 5.72066C11.3972 6.36096 11.3973 7.39913 12.0375 8.03947L12.523 8.52492L4.85737 16.7623C4.52039 17.1245 4.36055 17.6169 4.41888 18.1081C4.51064 18.8807 5.11926 19.4893 5.89179 19.5811C6.38303 19.6394 6.87546 19.4795 7.23764 19.1426L15.475 11.4769L15.9605 11.9624C16.6008 12.6025 17.639 12.6026 18.2793 11.9624C18.9195 11.3221 18.9193 10.2839 18.2793 9.64358L17.8774 9.24169L19.7957 7.32339C20.6572 6.46186 20.6572 5.06508 19.7957 4.20355Z"/>
</mask>
<path d="M19.7957 4.20355L20.8562 3.14272L20.8563 3.14289L19.7957 4.20355ZM14.7576 6.12186L15.8182 7.18252L14.7576 8.24318L13.6969 7.18252L14.7576 6.12186ZM14.3564 5.72066L15.4169 4.65992L15.417 4.66L14.3564 5.72066ZM12.0375 5.72066L10.9769 4.66L10.9769 4.65996L12.0375 5.72066ZM12.0375 8.03947L10.9769 9.10013L10.9768 9.10006L12.0375 8.03947ZM12.523 8.52492L13.5836 7.46426L14.6069 8.48747L13.6211 9.54678L12.523 8.52492ZM4.85737 16.7623L3.75919 15.7405L3.75928 15.7404L4.85737 16.7623ZM4.41888 18.1081L2.92935 18.2851L2.92934 18.285L4.41888 18.1081ZM5.89179 19.5811L5.71492 21.0706L5.71484 21.0706L5.89179 19.5811ZM7.23764 19.1426L8.2595 20.2407L8.25941 20.2407L7.23764 19.1426ZM15.475 11.4769L14.4532 10.3789L15.5125 9.39308L16.5357 10.4163L15.475 11.4769ZM15.9605 11.9624L14.9 13.0233L14.8998 13.0231L15.9605 11.9624ZM18.2793 11.9624L19.34 13.023L19.3399 13.0231L18.2793 11.9624ZM18.2793 9.64358L19.3399 8.58292L19.3402 8.58316L18.2793 9.64358ZM17.8774 9.24169L16.8167 10.3024L15.7561 9.24169L16.8167 8.18103L17.8774 9.24169ZM19.7957 4.20355L18.7352 5.26439C18.4592 4.9885 18.012 4.98874 17.7365 5.26421L16.6759 4.20355L15.6152 3.14289C17.0626 1.69549 19.409 1.69608 20.8562 3.14272L19.7957 4.20355ZM16.6759 4.20355L17.7365 5.26421L15.8182 7.18252L14.7576 6.12186L13.6969 5.0612L15.6152 3.14289L16.6759 4.20355ZM14.7576 6.12186L13.6969 7.18252L13.2957 6.78132L14.3564 5.72066L15.417 4.66L15.8182 5.0612L14.7576 6.12186ZM14.3564 5.72066L13.2958 6.78139C13.2412 6.7268 13.1527 6.72686 13.0982 6.78135L12.0375 5.72066L10.9769 4.65996C12.203 3.43392 14.1909 3.43403 15.4169 4.65992L14.3564 5.72066ZM12.0375 5.72066L13.0982 6.78132C13.0438 6.83576 13.0436 6.92424 13.0983 6.97888L12.0375 8.03947L10.9768 9.10006C9.75094 7.87402 9.75071 5.88616 10.9769 4.66L12.0375 5.72066ZM12.0375 8.03947L13.0982 6.97881L13.5836 7.46426L12.523 8.52492L11.4623 9.58558L10.9769 9.10013L12.0375 8.03947ZM12.523 8.52492L13.6211 9.54678L5.95545 17.7842L4.85737 16.7623L3.75928 15.7404L11.4249 7.50305L12.523 8.52492ZM4.85737 16.7623L5.95554 17.7841C5.92016 17.8221 5.90181 17.8756 5.90841 17.9313L4.41888 18.1081L2.92934 18.285C2.81929 17.3582 3.12062 16.4268 3.75919 15.7405L4.85737 16.7623ZM4.41888 18.1081L5.90841 17.9312C5.91842 18.0155 5.98441 18.0815 6.06873 18.0915L5.89179 19.5811L5.71484 21.0706C4.25411 20.8971 3.10287 19.7458 2.92935 18.2851L4.41888 18.1081ZM5.89179 19.5811L6.06865 18.0915C6.12429 18.0981 6.17784 18.0798 6.21586 18.0444L7.23764 19.1426L8.25941 20.2407C7.57309 20.8793 6.64177 21.1806 5.71492 21.0706L5.89179 19.5811ZM7.23764 19.1426L6.21577 18.0445L14.4532 10.3789L15.475 11.4769L16.4969 12.575L8.2595 20.2407L7.23764 19.1426ZM15.475 11.4769L16.5357 10.4163L17.0211 10.9017L15.9605 11.9624L14.8998 13.0231L14.4144 12.5376L15.475 11.4769ZM15.9605 11.9624L17.0209 10.9015C17.0757 10.9563 17.1644 10.956 17.2186 10.9017L18.2793 11.9624L19.3399 13.0231C18.1137 14.2493 16.1259 14.2486 14.9 13.0233L15.9605 11.9624ZM18.2793 11.9624L17.2186 10.9018C17.2728 10.8475 17.2732 10.7588 17.2184 10.704L18.2793 9.64358L19.3402 8.58316C20.5655 9.80903 20.5661 11.7968 19.34 13.023L18.2793 11.9624ZM18.2793 9.64358L17.2186 10.7042L16.8167 10.3024L17.8774 9.24169L18.938 8.18103L19.3399 8.58292L18.2793 9.64358ZM17.8774 9.24169L16.8167 8.18103L18.735 6.26273L19.7957 7.32339L20.8563 8.38405L18.938 10.3024L17.8774 9.24169ZM19.7957 7.32339L18.735 6.26273C19.0108 5.98698 19.0108 5.53996 18.735 5.26421L19.7957 4.20355L20.8563 3.14289C22.3037 4.59021 22.3037 6.93673 20.8563 8.38405L19.7957 7.32339Z" fill="#EEEEEE" mask="url(#path-3-outside-1_5_113)"/>
</svg>
