<svg width="24" height="24" viewBox="0 0 24 24" fill="none" xmlns="http://www.w3.org/2000/svg">
<rect width="24" height="24" fill="white"/>
<mask id="path-2-outside-1_5_139" maskUnits="userSpaceOnUse" x="2" y="1" width="20" height="22" fill="black">
<rect fill="white" x="2" y="1" width="20" height="22"/>
<path d="M12.5 3C15.2614 3 17.5 5.23858 17.5 8C17.5 8.55228 17.0523 9 16.5 9C15.9477 9 15.5 8.55228 15.5 8C15.5 6.34315 14.1569 5 12.5 5H12C10.067 5 8.5 6.567 8.5 8.5V10H18C19.1046 10 20 10.8954 20 12V19C20 20.1046 19.1046 21 18 21H6C4.89543 21 4 20.1046 4 19V12C4 10.8954 4.89543 10 6 10H6.5V8.5C6.5 5.46243 8.96243 3 12 3H12.5ZM12 13C11.4477 13 11 13.4477 11 14C11 14.3698 11.2016 14.6912 11.5 14.8643V16.5C11.5 16.7761 11.7239 17 12 17C12.2761 17 12.5 16.7761 12.5 16.5V14.8643C12.7984 14.6912 13 14.3698 13 14C13 13.4477 12.5523 13 12 13Z"/>
</mask>
<path d="M12.5 3C15.2614 3 17.5 5.23858 17.5 8C17.5 8.55228 17.0523 9 16.5 9C15.9477 9 15.5 8.55228 15.5 8C15.5 6.34315 14.1569 5 12.5 5H12C10.067 5 8.5 6.567 8.5 8.5V10H18C19.1046 10 20 10.8954 20 12V19C20 20.1046 19.1046 21 18 21H6C4.89543 21 4 20.1046 4 19V12C4 10.8954 4.89543 10 6 10H6.5V8.5C6.5 5.46243 8.96243 3 12 3H12.5ZM12 13C11.4477 13 11 13.4477 11 14C11 14.3698 11.2016 14.6912 11.5 14.8643V16.5C11.5 16.7761 11.7239 17 12 17C12.2761 17 12.5 16.7761 12.5 16.5V14.8643C12.7984 14.6912 13 14.3698 13 14C13 13.4477 12.5523 13 12 13Z" fill="#999999"/>
<path d="M8.5 10H7V11.5H8.5V10ZM20 12H21.5H20ZM20 19H21.5H20ZM4 19H2.5H4ZM4 12H2.5H4ZM6.5 10V11.5H8V10H6.5ZM11.5 14.8643H13V14.0001L12.2524 13.5666L11.5 14.8643ZM11.5 16.5H10H11.5ZM12.5 16.5H14H12.5ZM12.5 14.8643L11.7476 13.5666L11 14.0001V14.8643H12.5ZM12.5 3V4.5C14.433 4.5 16 6.067 16 8H17.5H19C19 4.41015 16.0899 1.5 12.5 1.5V3ZM17.5 8H16C16 7.72386 16.2239 7.5 16.5 7.5V9V10.5C17.8807 10.5 19 9.38071 19 8H17.5ZM16.5 9V7.5C16.7761 7.5 17 7.72386 17 8H15.5H14C14 9.38071 15.1193 10.5 16.5 10.5V9ZM15.5 8H17C17 5.51472 14.9853 3.5 12.5 3.5V5V6.5C13.3284 6.5 14 7.17157 14 8H15.5ZM12.5 5V3.5H12V5V6.5H12.5V5ZM12 5V3.5C9.23858 3.5 7 5.73858 7 8.5H8.5H10C10 7.39543 10.8954 6.5 12 6.5V5ZM8.5 8.5H7V10H8.5H10V8.5H8.5ZM8.5 10V11.5H18V10V8.5H8.5V10ZM18 10V11.5C18.2761 11.5 18.5 11.7239 18.5 12H20H21.5C21.5 10.067 19.933 8.5 18 8.5V10ZM20 12H18.5V19H20H21.5V12H20ZM20 19H18.5C18.5 19.2761 18.2761 19.5 18 19.5V21V22.5C19.933 22.5 21.5 20.933 21.5 19H20ZM18 21V19.5H6V21V22.5H18V21ZM6 21V19.5C5.72386 19.5 5.5 19.2761 5.5 19H4H2.5C2.5 20.933 4.067 22.5 6 22.5V21ZM4 19H5.5V12H4H2.5V19H4ZM4 12H5.5C5.5 11.7239 5.72386 11.5 6 11.5V10V8.5C4.067 8.5 2.5 10.067 2.5 12H4ZM6 10V11.5H6.5V10V8.5H6V10ZM6.5 10H8V8.5H6.5H5V10H6.5ZM6.5 8.5H8C8 6.29086 9.79086 4.5 12 4.5V3V1.5C8.13401 1.5 5 4.63401 5 8.5H6.5ZM12 3V4.5H12.5V3V1.5H12V3ZM12 13V11.5C10.6193 11.5 9.5 12.6193 9.5 14H11H12.5C12.5 14.2761 12.2761 14.5 12 14.5V13ZM11 14H9.5C9.5 14.9312 10.0098 15.7342 10.7476 16.1619L11.5 14.8643L12.2524 13.5666C12.3933 13.6483 12.5 13.8084 12.5 14H11ZM11.5 14.8643H10V16.5H11.5H13V14.8643H11.5ZM11.5 16.5H10C10 17.6046 10.8954 18.5 12 18.5V17V15.5C12.5523 15.5 13 15.9477 13 16.5H11.5ZM12 17V18.5C13.1046 18.5 14 17.6046 14 16.5H12.5H11C11 15.9477 11.4477 15.5 12 15.5V17ZM12.5 16.5H14V14.8643H12.5H11V16.5H12.5ZM12.5 14.8643L13.2524 16.1619C13.9902 15.7342 14.5 14.9312 14.5 14H13H11.5C11.5 13.8084 11.6067 13.6483 11.7476 13.5666L12.5 14.8643ZM13 14H14.5C14.5 12.6193 13.3807 11.5 12 11.5V13V14.5C11.7239 14.5 11.5 14.2761 11.5 14H13Z" fill="#EEEEEE" mask="url(#path-2-outside-1_5_139)"/>
</svg>
