<svg width="20" height="22" viewBox="0 0 20 22" fill="none" xmlns="http://www.w3.org/2000/svg">
<mask id="path-1-outside-1_5_141" maskUnits="userSpaceOnUse" x="0" y="0" width="20" height="22" fill="black">
<rect fill="white" width="20" height="22"/>
<path d="M10 2C13.0376 2 15.5 4.46243 15.5 7.5V9H16C17.1046 9 18 9.89543 18 11V18C18 19.1046 17.1046 20 16 20H4C2.89543 20 2 19.1046 2 18V11C2 9.89543 2.89543 9 4 9H4.5V7.5C4.5 4.46243 6.96243 2 10 2ZM10 12C9.44772 12 9 12.4477 9 13C9 13.3698 9.20157 13.6912 9.5 13.8643V15.5C9.5 15.7761 9.72386 16 10 16C10.2761 16 10.5 15.7761 10.5 15.5V13.8643C10.7984 13.6912 11 13.3698 11 13C11 12.4477 10.5523 12 10 12ZM10 4C8.067 4 6.5 5.567 6.5 7.5V9H13.5V7.5C13.5 5.567 11.933 4 10 4Z"/>
</mask>
<path d="M10 2C13.0376 2 15.5 4.46243 15.5 7.5V9H16C17.1046 9 18 9.89543 18 11V18C18 19.1046 17.1046 20 16 20H4C2.89543 20 2 19.1046 2 18V11C2 9.89543 2.89543 9 4 9H4.5V7.5C4.5 4.46243 6.96243 2 10 2ZM10 12C9.44772 12 9 12.4477 9 13C9 13.3698 9.20157 13.6912 9.5 13.8643V15.5C9.5 15.7761 9.72386 16 10 16C10.2761 16 10.5 15.7761 10.5 15.5V13.8643C10.7984 13.6912 11 13.3698 11 13C11 12.4477 10.5523 12 10 12ZM10 4C8.067 4 6.5 5.567 6.5 7.5V9H13.5V7.5C13.5 5.567 11.933 4 10 4Z" fill="#555555"/>
<path d="M10 2L10 0.5L10 0.5L10 2ZM15.5 9H14V10.5H15.5V9ZM18 11L19.5 11V11L18 11ZM18 18L19.5 18V18H18ZM2 18L0.5 18L0.5 18L2 18ZM2 11L0.5 11V11H2ZM4.5 9V10.5H6V9H4.5ZM9.5 13.8643H11V13.0001L10.2524 12.5666L9.5 13.8643ZM9.5 15.5L8 15.5V15.5L9.5 15.5ZM10.5 15.5L12 15.5V15.5H10.5ZM10.5 13.8643L9.74763 12.5666L9 13.0001V13.8643H10.5ZM10 4L10 2.5L10 2.5L10 4ZM6.5 9H5V10.5H6.5V9ZM13.5 9V10.5H15V9H13.5ZM10 2V3.5C12.2091 3.5 14 5.29086 14 7.5H15.5H17C17 3.63401 13.866 0.5 10 0.5V2ZM15.5 7.5H14V9H15.5H17V7.5H15.5ZM15.5 9V10.5H16V9V7.5H15.5V9ZM16 9V10.5C16.2761 10.5 16.5 10.7239 16.5 11L18 11L19.5 11C19.5 9.067 17.933 7.5 16 7.5V9ZM18 11H16.5V18H18H19.5V11H18ZM18 18L16.5 18C16.5 18.2761 16.2761 18.5 16 18.5V20V21.5C17.933 21.5 19.5 19.933 19.5 18L18 18ZM16 20V18.5H4V20V21.5H16V20ZM4 20V18.5C3.72386 18.5 3.5 18.2761 3.5 18L2 18L0.5 18C0.5 19.933 2.067 21.5 4 21.5V20ZM2 18H3.5V11H2H0.5V18H2ZM2 11L3.5 11C3.5 10.7239 3.72386 10.5 4 10.5V9V7.5C2.067 7.5 0.5 9.067 0.5 11L2 11ZM4 9V10.5H4.5V9V7.5H4V9ZM4.5 9H6V7.5H4.5H3V9H4.5ZM4.5 7.5H6C6 5.29086 7.79086 3.5 10 3.5L10 2L10 0.5C6.13401 0.5 3 3.63401 3 7.5H4.5ZM10 12V10.5C8.61929 10.5 7.5 11.6193 7.5 13H9H10.5C10.5 13.2761 10.2761 13.5 10 13.5V12ZM9 13H7.5C7.5 13.9312 8.00983 14.7342 8.74763 15.1619L9.5 13.8643L10.2524 12.5666C10.3933 12.6483 10.5 12.8084 10.5 13H9ZM9.5 13.8643H8V15.5H9.5H11V13.8643H9.5ZM9.5 15.5L8 15.5C8 16.6046 8.89543 17.5 10 17.5V16V14.5C10.5523 14.5 11 14.9477 11 15.5L9.5 15.5ZM10 16V17.5C11.1046 17.5 12 16.6046 12 15.5L10.5 15.5L9 15.5C9 14.9477 9.44772 14.5 10 14.5V16ZM10.5 15.5H12V13.8643H10.5H9V15.5H10.5ZM10.5 13.8643L11.2524 15.1619C11.9902 14.7342 12.5 13.9312 12.5 13H11H9.5C9.5 12.8084 9.60669 12.6483 9.74763 12.5666L10.5 13.8643ZM11 13H12.5C12.5 11.6193 11.3807 10.5 10 10.5V12V13.5C9.72386 13.5 9.5 13.2761 9.5 13H11ZM10 4L10 2.5C7.23858 2.5 5 4.73858 5 7.5H6.5H8C8 6.39543 8.89543 5.5 10 5.5L10 4ZM6.5 7.5H5V9H6.5H8V7.5H6.5ZM6.5 9V10.5H13.5V9V7.5H6.5V9ZM13.5 9H15V7.5H13.5H12V9H13.5ZM13.5 7.5H15C15 4.73858 12.7614 2.5 10 2.5V4V5.5C11.1046 5.5 12 6.39543 12 7.5H13.5Z" fill="#EEEEEE" mask="url(#path-1-outside-1_5_141)"/>
</svg>
