<svg width="279" height="36" viewBox="0 0 279 36" fill="none" xmlns="http://www.w3.org/2000/svg">
<path d="M278 1V35H252.991V30.4287H249.156V14.7139H252.991V10.1426H268.33V1H278ZM258.826 28.4287H268.33V16.7139H258.826V28.4287Z" fill="#F48E39" stroke="#DB564C" stroke-width="2"/>
<path d="M238.186 10.1426V28.4287H245.855V35H220.847V28.4287H228.517V16.7139H224.682V10.1426H238.186ZM238.186 1V7.57129H228.517V1H238.186Z" fill="#F48E39" stroke="#DB564C" stroke-width="2"/>
<path d="M212.876 10.1429V14.7141H216.711V35.0003H191.702V30.429H187.867V23.8567H191.702V19.2854H207.041V16.7141H191.702V10.1429H212.876ZM197.537 28.429H207.041V25.8567H197.537V28.429Z" fill="#F48E39" stroke="#DB564C" stroke-width="2"/>
<path d="M180.731 1V5.57129H184.566V21.2861H176.896V23.8574H180.731V28.4287H184.566V35H171.062V30.4287H167.228V25.8574H165.393V35H155.723V1H180.731ZM165.393 19.2861H171.062V14.7139H174.896V7.57129H165.393V19.2861Z" fill="#F48E39" stroke="#DB564C" stroke-width="2"/>
<path d="M141.752 1V28.4287H149.422V35H124.413V28.4287H132.083V7.57129H128.248V1H141.752Z" fill="#F48E39" stroke="#DB564C" stroke-width="2"/>
<path d="M119.442 10.1429V14.7141H123.277V25.8567H104.104V28.429H119.442V35.0003H98.2686V30.429H94.4336V14.7141H98.2686V10.1429H119.442ZM104.104 19.2854H113.607V16.7141H104.104V19.2854Z" fill="#F48E39" stroke="#DB564C" stroke-width="2"/>
<path d="M71.959 10.1429V14.7141H75.7939V19.2854H77.6279V14.7141H81.4629V10.1429H91.1328V16.7141H87.2979V21.2854H83.4629V23.8567H87.2979V28.429H91.1328V35.0003H81.4629V30.429H77.6279V25.8567H75.7939V30.429H71.959V35.0003H62.2891V28.429H66.124V23.8567H69.959V21.2854H66.124V16.7141H62.2891V10.1429H71.959Z" fill="#F48E39" stroke="#DB564C" stroke-width="2"/>
<path d="M51.3184 10.1426V28.4287H58.9883V35H33.9795V28.4287H41.6494V16.7139H37.8145V10.1426H51.3184ZM51.3184 1V7.57129H41.6494V1H51.3184Z" fill="#F48E39" stroke="#DB564C" stroke-width="2"/>
<path d="M26.0088 1V5.57129H29.8438V21.2861H26.0088V25.8574H10.6699V35H1V1H26.0088ZM10.6699 19.2861H20.1738V7.57129H10.6699V19.2861Z" fill="#F48E39" stroke="#DB564C" stroke-width="2"/>
</svg>
