<svg width="181" height="26" viewBox="0 0 181 26" fill="none" xmlns="http://www.w3.org/2000/svg">
<path d="M180 1V25H163.19V21.8574H160.722V10.4287H163.19V7.28613H173.063V1H180ZM167.659 19.8574H173.063V12.4287H167.659V19.8574Z" fill="black" stroke="white" stroke-width="2"/>
<path d="M154.374 7.28613V19.8574H159.311V25H142.501V19.8574H147.438V12.4287H144.969V7.28613H154.374ZM154.374 1V6.14258H147.438V1H154.374Z" fill="black" stroke="white" stroke-width="2"/>
<path d="M138.084 7.28571V10.4283H140.552V24.9996H123.742V21.857H121.275V16.7144H123.742V13.5718H133.615V12.4283H123.742V7.28571H138.084ZM128.211 19.857H133.615V18.7144H128.211V19.857Z" fill="black" stroke="white" stroke-width="2"/>
<path d="M117.395 1V4.14258H119.863V15.5713H114.926V16.7139H117.395V19.8574H119.863V25H110.458V21.8574H107.989V18.7139H107.522V25H100.585V1H117.395ZM107.522 13.5713H110.458V10.4287H112.926V6.14258H107.522V13.5713Z" fill="black" stroke="white" stroke-width="2"/>
<path d="M92.3061 1V19.8574H97.2426V25H80.4331V19.8574H85.3696V6.14258H82.9008V1H92.3061Z" fill="black" stroke="white" stroke-width="2"/>
<path d="M77.9469 7.28571V10.4283H80.4146V18.7144H68.0738V19.857H77.9469V24.9996H63.6051V21.857H61.1373V10.4283H63.6051V7.28571H77.9469ZM68.0738 13.5718H73.4781V12.4283H68.0738V13.5718Z" fill="black" stroke="white" stroke-width="2"/>
<path d="M47.3844 7.28571V10.4283H49.8522V13.5718H50.3209V10.4283H52.7887V7.28571H59.7252V12.4283H57.2575V15.5718H54.7887V16.7144H57.2575V19.857H59.7252V24.9996H52.7887V21.857H50.3209V18.7144H49.8522V21.857H47.3844V24.9996H40.4479V19.857H42.9157V16.7144H45.3844V15.5718H42.9157V12.4283H40.4479V7.28571H47.3844Z" fill="black" stroke="white" stroke-width="2"/>
<path d="M34.0998 7.28613V19.8574H39.0363V25H22.2267V19.8574H27.1632V12.4287H24.6945V7.28613H34.0998ZM34.0998 1V6.14258H27.1632V1H34.0998Z" fill="black" stroke="white" stroke-width="2"/>
<path d="M17.8096 1V4.14258H20.2773V15.5713H17.8096V18.7139H7.93652V25H1V1H17.8096ZM7.93652 13.5713H13.3408V6.14258H7.93652V13.5713Z" fill="black" stroke="white" stroke-width="2"/>
</svg>
