<svg width="24" height="24" viewBox="0 0 24 24" fill="none" xmlns="http://www.w3.org/2000/svg">
<rect width="24" height="24" transform="matrix(-1 0 0 1 24 6.10352e-05)" fill="white"/>
<path d="M20.0999 5.09986C19.2383 4.23858 17.8415 4.23842 16.98 5.09986L15.0617 7.01817L13.8816 5.83805C13.2413 5.19775 12.2031 5.19782 11.5628 5.83805C10.9225 6.47838 10.9225 7.51652 11.5628 8.15686L12.8272 9.42123L5.16224 17.6593L5.04416 17.8009C4.78854 18.1443 4.67207 18.5747 4.72306 19.0045L4.74585 19.1474C4.89124 19.8512 5.4724 20.3921 6.19666 20.4781C6.62623 20.5289 7.05694 20.4125 7.40026 20.157L7.54182 20.0389L15.7799 12.3739L17.0436 13.6376C17.6839 14.2779 18.7221 14.278 19.3624 13.6376C20.0026 12.9973 20.0027 11.9591 19.3624 11.3188L18.1816 10.138L20.0999 8.2197C20.9614 7.35817 20.9614 5.96139 20.0999 5.09986ZM14.7192 11.3133L6.51983 18.9409C6.48047 18.9774 6.42603 18.9947 6.37275 18.9886C6.28899 18.9784 6.22288 18.9121 6.21254 18.8284C6.2062 18.7749 6.22363 18.7208 6.26019 18.6813L13.8885 10.4826L14.7192 11.3133Z" fill="#999999"/>
<mask id="path-3-outside-1_5_136" maskUnits="userSpaceOnUse" x="-0.820584" y="-0.97138" width="26.8701" height="26.8701" fill="black">
<rect fill="white" x="-0.820584" y="-0.97138" width="26.8701" height="26.8701"/>
<path d="M20.0998 5.09979C19.2383 4.23853 17.8414 4.23835 16.98 5.09979L15.0617 7.0181L14.6605 6.6169C14.0202 5.97666 12.982 5.97663 12.3417 6.6169C11.7014 7.2572 11.7014 8.29537 12.3417 8.93571L12.8271 9.42116L5.16151 17.6585C4.82453 18.0207 4.66469 18.5131 4.72302 19.0044C4.81479 19.7769 5.4234 20.3855 6.19593 20.4773C6.68718 20.5356 7.17961 20.3758 7.54178 20.0388L15.7792 12.3732L16.2646 12.8586C16.905 13.4987 17.9432 13.4989 18.5834 12.8586C19.2236 12.2184 19.2235 11.1802 18.5834 10.5398L18.1815 10.1379L20.0998 8.21963C20.9614 7.3581 20.9614 5.96132 20.0998 5.09979Z"/>
</mask>
<path d="M20.0998 5.09979L21.1603 4.03896L21.1605 4.03913L20.0998 5.09979ZM15.0617 7.0181L16.1224 8.07876L15.0617 9.13942L14.001 8.07876L15.0617 7.0181ZM14.6605 6.6169L15.7211 5.55616L15.7212 5.55624L14.6605 6.6169ZM12.3417 6.6169L11.281 5.55624L11.2811 5.5562L12.3417 6.6169ZM12.3417 8.93571L11.281 9.99637L11.281 9.9963L12.3417 8.93571ZM12.8271 9.42116L13.8878 8.3605L14.911 9.38371L13.9252 10.443L12.8271 9.42116ZM5.16151 17.6585L4.06334 16.6368L4.06343 16.6367L5.16151 17.6585ZM4.72302 19.0044L3.23349 19.1813L3.23349 19.1812L4.72302 19.0044ZM6.19593 20.4773L6.01907 21.9668L6.01898 21.9668L6.19593 20.4773ZM7.54178 20.0388L8.56365 21.1369L8.56356 21.137L7.54178 20.0388ZM15.7792 12.3732L14.7573 11.2751L15.8166 10.2893L16.8398 11.3125L15.7792 12.3732ZM16.2646 12.8586L15.2042 13.9195L15.2039 13.9193L16.2646 12.8586ZM18.5834 12.8586L19.6441 13.9193L19.6441 13.9193L18.5834 12.8586ZM18.5834 10.5398L19.6441 9.47916L19.6443 9.4794L18.5834 10.5398ZM18.1815 10.1379L17.1209 11.1986L16.0602 10.1379L17.1209 9.07727L18.1815 10.1379ZM20.0998 5.09979L19.0393 6.16063C18.7634 5.88474 18.3161 5.88498 18.0407 6.16045L16.98 5.09979L15.9193 4.03913C17.3667 2.59173 19.7132 2.59232 21.1603 4.03896L20.0998 5.09979ZM16.98 5.09979L18.0407 6.16045L16.1224 8.07876L15.0617 7.0181L14.001 5.95744L15.9193 4.03913L16.98 5.09979ZM15.0617 7.0181L14.001 8.07876L13.5998 7.67756L14.6605 6.6169L15.7212 5.55624L16.1224 5.95744L15.0617 7.0181ZM14.6605 6.6169L13.5999 7.67763C13.5453 7.62304 13.4568 7.6231 13.4023 7.67759L12.3417 6.6169L11.2811 5.5562C12.5072 4.33016 14.495 4.33027 15.7211 5.55616L14.6605 6.6169ZM12.3417 6.6169L13.4023 7.67756C13.3479 7.73201 13.3478 7.82048 13.4024 7.87512L12.3417 8.93571L11.281 9.9963C10.0551 8.77026 10.0549 6.7824 11.281 5.55624L12.3417 6.6169ZM12.3417 8.93571L13.4023 7.87505L13.8878 8.3605L12.8271 9.42116L11.7665 10.4818L11.281 9.99637L12.3417 8.93571ZM12.8271 9.42116L13.9252 10.443L6.2596 18.6804L5.16151 17.6585L4.06343 16.6367L11.729 8.39929L12.8271 9.42116ZM5.16151 17.6585L6.25968 18.6803C6.2243 18.7183 6.20595 18.7719 6.21256 18.8275L4.72302 19.0044L3.23349 19.1812C3.12344 18.2544 3.42477 17.3231 4.06334 16.6368L5.16151 17.6585ZM4.72302 19.0044L6.21255 18.8275C6.22256 18.9117 6.28856 18.9778 6.37288 18.9878L6.19593 20.4773L6.01898 21.9668C4.55825 21.7933 3.40701 20.6421 3.23349 19.1813L4.72302 19.0044ZM6.19593 20.4773L6.37279 18.9878C6.42844 18.9944 6.48198 18.976 6.52001 18.9406L7.54178 20.0388L8.56356 21.137C7.87723 21.7756 6.94592 22.0769 6.01907 21.9668L6.19593 20.4773ZM7.54178 20.0388L6.51992 18.9407L14.7573 11.2751L15.7792 12.3732L16.801 13.4713L8.56365 21.1369L7.54178 20.0388ZM15.7792 12.3732L16.8398 11.3125L17.3253 11.798L16.2646 12.8586L15.2039 13.9193L14.7185 13.4338L15.7792 12.3732ZM16.2646 12.8586L17.325 11.7977C17.3799 11.8526 17.4685 11.8522 17.5228 11.798L18.5834 12.8586L19.6441 13.9193C18.4178 15.1456 16.43 15.1448 15.2042 13.9195L16.2646 12.8586ZM18.5834 12.8586L17.5227 11.798C17.577 11.7437 17.5773 11.6551 17.5225 11.6002L18.5834 10.5398L19.6443 9.4794C20.8696 10.7053 20.8703 12.693 19.6441 13.9193L18.5834 12.8586ZM18.5834 10.5398L17.5228 11.6005L17.1209 11.1986L18.1815 10.1379L19.2422 9.07727L19.6441 9.47916L18.5834 10.5398ZM18.1815 10.1379L17.1209 9.07727L19.0392 7.15897L20.0998 8.21963L21.1605 9.28029L19.2422 11.1986L18.1815 10.1379ZM20.0998 8.21963L19.0392 7.15897C19.3149 6.88322 19.3149 6.4362 19.0392 6.16045L20.0998 5.09979L21.1605 4.03913C22.6078 5.48645 22.6078 7.83297 21.1605 9.28029L20.0998 8.21963Z" fill="#EEEEEE" mask="url(#path-3-outside-1_5_136)"/>
</svg>
