<svg width="24" height="24" viewBox="0 0 24 24" fill="none" xmlns="http://www.w3.org/2000/svg">
<path d="M8.45191 11.68C10.59 11.68 12.3232 9.96074 12.3232 7.83998C12.3232 5.71922 10.59 4 8.45191 4C6.31383 4 4.58057 5.71922 4.58057 7.83998C4.58057 9.96074 6.31383 11.68 8.45191 11.68Z" fill="#999999"/>
<path d="M8.45264 13.32C11.4638 13.32 13.9048 15.761 13.9048 18.7722V18.9997H3.0005V18.7722C3.00054 15.761 5.44152 13.32 8.45264 13.32Z" fill="#999999" stroke="#999999" stroke-width="2"/>
<mask id="path-3-inside-1_5_143" fill="white">
<path d="M15.5501 12.3203C19.1136 12.3203 22.0023 15.2089 22.0023 18.7724V19.3017C22.0022 19.6873 21.6896 19.9999 21.304 19.9999H14.8509C15.2365 19.9999 15.5491 19.6873 15.5491 19.3017V18.7724C15.5491 16.3847 14.2514 14.3013 12.3235 13.1855C13.2728 12.636 14.3744 12.3203 15.5501 12.3203ZM15.5491 3.99994C17.6872 3.99994 19.4211 5.71907 19.4212 7.83978C19.4212 9.96053 17.6872 11.6796 15.5491 11.6796C14.202 11.6794 13.0159 10.9965 12.3226 9.96088C12.7298 9.35301 12.9681 8.62425 12.9681 7.83978C12.968 7.05505 12.73 6.32572 12.3226 5.71771C13.016 4.68248 14.2023 4.00012 15.5491 3.99994Z"/>
</mask>
<path d="M15.5501 12.3203C19.1136 12.3203 22.0023 15.2089 22.0023 18.7724V19.3017C22.0022 19.6873 21.6896 19.9999 21.304 19.9999H14.8509C15.2365 19.9999 15.5491 19.6873 15.5491 19.3017V18.7724C15.5491 16.3847 14.2514 14.3013 12.3235 13.1855C13.2728 12.636 14.3744 12.3203 15.5501 12.3203ZM15.5491 3.99994C17.6872 3.99994 19.4211 5.71907 19.4212 7.83978C19.4212 9.96053 17.6872 11.6796 15.5491 11.6796C14.202 11.6794 13.0159 10.9965 12.3226 9.96088C12.7298 9.35301 12.9681 8.62425 12.9681 7.83978C12.968 7.05505 12.73 6.32572 12.3226 5.71771C13.016 4.68248 14.2023 4.00012 15.5491 3.99994Z" fill="#999999"/>
<path d="M15.5501 12.3203V10.3203H15.55L15.5501 12.3203ZM22.0023 19.3017L24.0023 19.3018V19.3017H22.0023ZM15.5491 19.3017L17.5491 19.3018V19.3017H15.5491ZM12.3235 13.1855L11.3217 11.4545L8.3309 13.1856L11.3217 14.9165L12.3235 13.1855ZM15.5491 3.99994V1.99994H15.5489L15.5491 3.99994ZM19.4212 7.83978L21.4212 7.8398V7.83973L19.4212 7.83978ZM15.5491 11.6796L15.5489 13.6796H15.5491V11.6796ZM12.3226 9.96088L10.6609 8.84777L9.91548 9.96057L10.6607 11.0736L12.3226 9.96088ZM12.9681 7.83978L14.9681 7.8398V7.83971L12.9681 7.83978ZM12.3226 5.71771L10.6609 4.60469L9.91516 5.71802L10.6612 6.83115L12.3226 5.71771ZM15.5501 12.3203V14.3203C18.009 14.3203 20.0023 16.3135 20.0023 18.7724H22.0023H24.0023C24.0023 14.1044 20.2181 10.3203 15.5501 10.3203V12.3203ZM22.0023 18.7724H20.0023V19.3017H22.0023H24.0023V18.7724H22.0023ZM22.0023 19.3017L20.0023 19.3016C20.0023 18.5828 20.5849 17.9999 21.304 17.9999V19.9999V21.9999C22.7943 21.9999 24.0022 20.7918 24.0023 19.3018L22.0023 19.3017ZM21.304 19.9999V17.9999H14.8509V19.9999V21.9999H21.304V19.9999ZM14.8509 19.9999V21.9999C16.3411 21.9999 17.5491 20.7918 17.5491 19.3018L15.5491 19.3017L13.5491 19.3016C13.5492 18.5828 14.1318 17.9999 14.8509 17.9999V19.9999ZM15.5491 19.3017H17.5491V18.7724H15.5491H13.5491V19.3017H15.5491ZM15.5491 18.7724H17.5491C17.5491 15.6411 15.8448 12.9126 13.3254 11.4545L12.3235 13.1855L11.3217 14.9165C12.658 15.6899 13.5491 17.1282 13.5491 18.7724H15.5491ZM12.3235 13.1855L13.3254 14.9165C13.9799 14.5376 14.7372 14.3203 15.5502 14.3203L15.5501 12.3203L15.55 10.3203C14.0115 10.3203 12.5658 10.7344 11.3217 11.4545L12.3235 13.1855ZM15.5491 3.99994V5.99994C16.5985 5.99994 17.4212 6.83948 17.4212 7.83984L19.4212 7.83978L21.4212 7.83973C21.4211 4.59866 18.7758 1.99994 15.5491 1.99994V3.99994ZM19.4212 7.83978L17.4212 7.83977C17.4212 8.84009 16.5986 9.67963 15.5491 9.67963V11.6796V13.6796C18.7758 13.6796 21.4212 11.081 21.4212 7.8398L19.4212 7.83978ZM15.5491 11.6796L15.5494 9.67963C14.8934 9.67954 14.3201 9.34952 13.9845 8.84819L12.3226 9.96088L10.6607 11.0736C11.7117 12.6434 13.5106 13.6793 15.5489 13.6796L15.5491 11.6796ZM12.3226 9.96088L13.9842 11.074C14.6032 10.1499 14.9681 9.03609 14.9681 7.8398L12.9681 7.83978L10.9681 7.83977C10.9681 8.21242 10.8563 8.55612 10.6609 8.84777L12.3226 9.96088ZM12.9681 7.83978L14.9681 7.83971C14.968 6.64403 14.604 5.5294 13.984 4.60427L12.3226 5.71771L10.6612 6.83115C10.8561 7.12203 10.9681 7.46608 10.9681 7.83985L12.9681 7.83978ZM12.3226 5.71771L13.9842 6.83073C14.3196 6.33008 14.8929 6.00003 15.5494 5.99994L15.5491 3.99994L15.5489 1.99994C13.5116 2.00022 11.7124 3.03489 10.6609 4.60469L12.3226 5.71771Z" fill="#999999" mask="url(#path-3-inside-1_5_143)"/>
</svg>
